<?xml version="1.0" encoding="UTF-8"?>
<svg width="100px" height="100px" viewBox="0 0 100 100" version="1.1" xmlns="http://www.w3.org/2000/svg" xmlns:xlink="http://www.w3.org/1999/xlink">
    <!-- Generator: Sketch 53.1 (72631) - https://sketchapp.com -->
    <title>Slice</title>
    <desc>Created with Sketch.</desc>
    <g id="Page-1" stroke="none" stroke-width="1" fill="none" fill-rule="evenodd">
        <g id="_icon_fb_white" fill-rule="nonzero">
            <path d="M93.6912752,99.3288591 C96.7785235,99.3288591 98.9261745,97.1812081 99.3288591,94.1610738 C99.3959732,93.6912752 99.3288591,93.2214765 99.3288591,92.8187919 C99.3288591,64.0939597 99.3288591,35.3691275 99.3288591,6.6442953 C99.3288591,6.24161074 99.3288591,5.83892617 99.3288591,5.43624161 C99.0604027,2.68456376 97.3825503,0.67114094 94.7651007,0.134228188 C94.1610738,0 93.6241611,0 93.0201342,0 C64.1610738,0 35.2348993,0 6.37583893,0 C2.48322148,0 0,2.55033557 0,6.37583893 C0,35.2348993 0,64.0939597 0,93.0201342 C0,97.0469799 2.2147651,99.3288591 6.24161074,99.3288591 C21.409396,99.3288591 93.6912752,99.3288591 93.6912752,99.3288591 Z" id="Path" fill="#3B5998"></path>
            <path d="M65.1677852,90.1342282 C65.1677852,79.7315436 65.1677852,69.3288591 65.1677852,58.8590604 C68.6577181,58.8590604 72.0805369,58.8590604 75.6375839,58.8590604 C76.1744966,54.6979866 76.7114094,50.738255 77.2483221,46.5771812 C73.1543624,46.5771812 69.1946309,46.5771812 65.1006711,46.5771812 C65.1006711,45.8389262 65.1006711,45.2348993 65.1006711,44.6308725 C65.1006711,42.6845638 65.1006711,40.8053691 65.1006711,38.8590604 C65.1006711,38.3221477 65.1006711,37.852349 65.1677852,37.3154362 C65.4362416,34.5637584 66.9127517,33.0201342 69.6644295,32.8187919 C71.8120805,32.6845638 73.9597315,32.7516779 76.1073826,32.7516779 C76.5771812,32.7516779 77.114094,32.7516779 77.6510067,32.7516779 C77.6510067,29.0604027 77.6510067,25.5033557 77.6510067,21.8120805 C76.442953,21.6778523 75.1677852,21.4765101 73.9597315,21.409396 C71.4765101,21.3422819 68.9932886,21.2080537 66.5100671,21.3422819 C62.2147651,21.6107383 58.5234899,23.1543624 55.7718121,26.5771812 C53.4228188,29.5302013 52.5503356,32.9530201 52.4832215,36.6442953 C52.4161074,39.3959732 52.4832215,42.147651 52.4832215,44.8993289 C52.4832215,45.3691275 52.4832215,45.8389262 52.4832215,46.442953 C48.9261745,46.442953 45.4362416,46.442953 41.9463087,46.442953 C41.9463087,50.6040268 41.9463087,54.6308725 41.9463087,58.7248322 C45.4362416,58.7248322 48.8590604,58.7248322 52.4161074,58.7248322 C52.4161074,69.261745 52.4161074,79.6644295 52.4161074,90.1342282 C52.0805369,90.1342282 51.8120805,90.2013423 51.4765101,90.2013423 C39.0604027,90.2013423 26.6442953,90.2013423 14.1610738,90.2013423 C10.8724832,90.2013423 9.06040268,88.3221477 9.06040268,85.033557 C9.06040268,61.409396 9.06040268,37.7181208 9.06040268,14.0939597 C9.06040268,11.0067114 11.0738255,8.8590604 14.295302,8.8590604 C37.9194631,8.9261745 61.6107383,8.8590604 85.2348993,8.8590604 C85.704698,8.8590604 86.1744966,8.8590604 86.6442953,8.9261745 C88.7919463,9.39597315 90.2013423,11.0067114 90.4026846,13.2214765 C90.4026846,13.557047 90.4026846,13.8926174 90.4026846,14.2281879 C90.4026846,37.7181208 90.4026846,61.2080537 90.4026846,84.7651007 C90.4026846,85.1677852 90.4026846,85.5033557 90.4026846,85.9060403 C90.1342282,88.3892617 88.3221477,90.1342282 85.7718121,90.1342282 C79.0604027,90.2013423 72.3489933,90.1342282 65.5704698,90.1342282 C65.3691275,90.2684564 65.3020134,90.2013423 65.1677852,90.1342282 Z" id="Path" fill="#FFFFFF"></path>
        </g>
    </g>
</svg>